# Alias OBJ Model File
# Exported from SketchUp, (c) 2000-2012 Trimble Navigation Limited
# File units = millimeters

mtllib 80x80_plate.mtl

g Mesh1 Model

usemtl FrontColor
v 100 1 -100
vt -3.93701 0.0393701
vn 0 0 -1
v 0 1 -100
vt 0 0.0393701
v 0 3 -100
vt 0 0.11811
v 100 3 -100
vt -3.93701 0.11811
f 1/1/1 2/2/1 3/3/1 4/4/1 

vt 0 3.93701
vn 0 -1 -0
vt -3.93701 3.93701
v 100 1 -0
vt -3.93701 0
v 0 1 -0
vt 0 0
f 2/5/2 1/6/2 5/7/2 6/8/2 

vt 4.44089e-16 0.0393701
vn 1 0 1.12799e-16
vt 3.93701 0.0393701
vt 3.93701 0.11811
v 100 3 -0
vt 4.44089e-16 0.11811
f 5/9/3 1/10/3 4/11/3 7/12/3 

vt 3.93701 3.93701
vn 0 1 -0
v 0 3 -0
vt 3.93701 0
f 4/13/4 3/5/4 8/8/4 7/14/4 

vn -1 0 -0
f 2/1/5 6/2/5 8/3/5 3/4/5 

vn 0 0 1
f 6/2/6 5/10/6 7/11/6 8/3/6 

