# Alias OBJ Model File
# Exported from SketchUp, (c) 2000-2012 Trimble Navigation Limited
# File units = millimeters

mtllib servo_holder.mtl

g Mesh1 Model

usemtl FrontColor
v 52 3 -19
vt 2.04724 0.11811
vn 0 0 1
v 52 22 -19
vt 2.04724 0.866142
v 47 22 -19
vt 1.85039 0.866142
v 47 10 -19
vt 1.85039 0.393701
v 25 10 -19
vt 0.984252 0.393701
v 25 22 -19
vt 0.984252 0.866142
v 19 22 -19
vt 0.748031 0.866142
v 19 3 -19
vt 0.748031 0.11811
f 1/1/1 2/2/1 3/3/1 4/4/1 5/5/1 6/6/1 7/7/1 8/8/1 

vn 1 0 -0
v 52 3 -30
vt 1.1811 0.11811
v 52 22 -30
vt 1.1811 0.866142
f 2/7/2 1/8/2 9/9/2 10/10/2 

vt 0.748031 0.748031
vn 0 1 -0
vt 2.04724 0.748031
vt 2.04724 1.1811
v 19 3 -30
vt 0.748031 1.1811
f 8/11/3 1/12/3 9/13/3 11/14/3 

vt -2.04724 0.866142
vn 0 0 -1
vt -2.04724 0.11811
vt -0.748031 0.11811
v 19 22 -30
vt -0.748031 0.866142
v 25 22 -30
vt -0.984252 0.866142
v 25 10 -30
vt -0.984252 0.393701
v 47 10 -30
vt -1.85039 0.393701
v 47 22 -30
vt -1.85039 0.866142
f 10/15/4 9/16/4 11/17/4 12/18/4 13/19/4 14/20/4 15/21/4 16/22/4 

vn -1 0 -0
vt -1.1811 0.866142
vt -1.1811 0.11811
f 8/17/5 7/18/5 12/23/5 11/24/5 

vt 0.984252 0.748031
vt 0.984252 1.1811
f 7/11/3 6/25/3 13/26/3 12/14/3 

vt 0.748031 0.393701
vt 1.1811 0.393701
f 6/7/2 5/27/2 14/28/2 13/10/2 

vt 1.85039 0.748031
vt 1.85039 1.1811
f 5/25/3 4/29/3 15/30/3 14/26/3 

vt -0.748031 0.393701
vt -1.1811 0.393701
f 4/31/5 3/18/5 16/23/5 15/32/5 

f 3/29/3 2/12/3 10/13/3 16/30/3 

