# Alias OBJ Model File
# Exported from SketchUp, (c) 2000-2012 Trimble Navigation Limited
# File units = millimeters

mtllib wall_96mm.mtl

g Mesh1 Model

usemtl FrontColor
v 4 0 -0
vt -0.15748 0
vn 0 -1 -0
v 0 0 -0
vt 0 0
v 0 0 -90
vt 0 3.54331
v 4 0 -90
vt -0.15748 3.54331
f 1/1/1 2/2/1 3/3/1 4/4/1 

vn 0 0 1
vt 0.15748 0
v 4 10 -0
vt 0.15748 0.393701
v 0 10 -0
vt 0 0.393701
f 2/2/2 1/5/2 5/6/2 6/7/2 

vn 1 0 -0
vt 3.54331 0
v 4 10 -90
vt 3.54331 0.393701
f 1/2/3 4/8/3 7/9/3 5/7/3 

vn 0 0 -1
v 0 10 -90
vt -0.15748 0.393701
f 4/1/4 3/2/4 8/7/4 7/10/4 

vt -3.54331 0
vn -1 0 -0
vt -3.54331 0.393701
f 3/11/5 2/2/5 6/7/5 8/12/5 

vn 0 1 -0
vt 0.15748 3.54331
f 6/2/6 5/5/6 7/13/6 8/3/6 

