# Alias OBJ Model File
# Exported from SketchUp, (c) 2000-2012 Trimble Navigation Limited
# File units = millimeters

mtllib rubberband_holder.mtl

g Mesh1 Model

usemtl FrontColor
v -8 2 -4
vt 0.314961 0.15748
vn 0 -1 -0
v -8 2 -8
vt 0.314961 0.314961
v -4 2 -8
vt 0.15748 0.314961
v -4 2 -4
vt 0.15748 0.15748
f 1/1/1 2/2/1 3/3/1 4/4/1 

vt -0.314961 0.0787402
vn -1 -7.71085e-17 6.29457e-18
vt -0.15748 0.0787402
v -8 2 -0
vt -1.98254e-18 0.0787402
v -8 6 -0
vt -1.98254e-18 0.23622
v -8 6 -4
vt -0.15748 0.23622
v -8 6 -20
vt -0.787402 0.23622
v -8 2 -20
vt -0.787402 0.0787402
f 2/5/2 1/6/2 5/7/2 6/8/2 7/9/2 8/10/2 9/11/2 

vt 0.314961 0
v 8 2 -4
vt -0.314961 0.15748
v 8 2 -0
vt -0.314961 0
f 5/12/1 1/1/1 4/4/1 10/13/1 11/14/1 

vt 0.15748 0.0787402
vn 0 -5.28744e-16 -1
v -4 6 -4
vt 0.15748 0.23622
v 8 6 -4
vt -0.314961 0.23622
f 4/15/3 12/16/3 13/17/3 10/5/3 

vt 0.314961 0.0787402
vn 1 0 -0
v -4 2 -16
vt 0.629921 0.0787402
v -4 6 -16
vt 0.629921 0.23622
f 3/18/4 14/19/4 15/20/4 12/16/4 4/15/4 

vt 0.15748 0.629921
vt 0.314961 0.787402
v 8 2 -20
vt -0.314961 0.787402
v 8 2 -10
vt -0.314961 0.393701
v 4 2 -10
vt -0.15748 0.393701
v 4 2 -16
vt -0.15748 0.629921
f 14/21/1 3/3/1 2/2/1 9/22/1 16/23/1 17/24/1 18/25/1 19/26/1 

vn 0 0 -1
vt 0.314961 0.23622
v 8 6 -20
f 16/5/5 9/18/5 8/27/5 20/17/5 

vn 0 1 -0
vt -0.15748 0.15748
v 4 6 -16
v 4 6 -10
vt 0.15748 0.393701
v 8 6 -10
vt 0.314961 0.393701
f 8/23/6 7/13/6 12/28/6 15/26/6 21/21/6 22/29/6 23/30/6 20/22/6 

v 8 6 -0
f 13/1/6 12/28/6 7/13/6 6/14/6 24/12/6 

vn 0 0 1
f 6/17/7 5/5/7 11/18/7 24/27/7 

vt 0 0.23622
vt 0 0.0787402
f 24/31/4 11/32/4 10/15/4 13/16/4 

f 14/6/7 19/15/7 21/16/7 15/9/7 

vt -0.629921 0.23622
vn -1 0 -0
vt -0.629921 0.0787402
vt -0.393701 0.0787402
vt -0.393701 0.23622
f 21/33/8 19/34/8 18/35/8 22/36/8 

f 23/27/7 22/16/7 18/15/7 17/18/7 

vt 0.787402 0.23622
vt 0.393701 0.23622
vt 0.393701 0.0787402
vt 0.787402 0.0787402
f 20/37/4 23/38/4 17/39/4 16/40/4 

